<svg width="38" height="38" viewBox="0 0 38 38" fill="none" xmlns="http://www.w3.org/2000/svg">
<path d="M32.3373 11.848L19.2748 4.70074C18.9257 4.50789 18.5335 4.40674 18.1348 4.40674C17.736 4.40674 17.3438 4.50789 16.9948 4.70074L3.93227 11.851C3.55923 12.0551 3.24783 12.3556 3.03058 12.7212C2.81334 13.0867 2.69823 13.5039 2.69727 13.9291V28.1257C2.69823 28.5509 2.81334 28.9681 3.03058 29.3336C3.24783 29.6992 3.55923 29.9997 3.93227 30.2038L16.9948 37.354C17.3438 37.5469 17.736 37.648 18.1348 37.648C18.5335 37.648 18.9257 37.5469 19.2748 37.354L32.3373 30.2038C32.7103 29.9997 33.0217 29.6992 33.2389 29.3336C33.4562 28.9681 33.5713 28.5509 33.5723 28.1257V13.9306C33.5721 13.5046 33.4574 13.0865 33.2401 12.7201C33.0228 12.3537 32.711 12.0525 32.3373 11.848ZM18.1348 6.77887L30.0617 13.3101L25.6413 15.7282L13.7143 9.19691L18.1348 6.77887ZM18.1348 19.8414L6.20781 13.3101L11.2413 10.5536L23.1683 17.0849L18.1348 19.8414ZM31.1973 28.1316L19.3223 34.6317V21.8943L24.0723 19.2951V24.5914C24.0723 24.9063 24.1974 25.2084 24.4201 25.4311C24.6428 25.6538 24.9448 25.7789 25.2598 25.7789C25.5747 25.7789 25.8768 25.6538 26.0995 25.4311C26.3222 25.2084 26.4473 24.9063 26.4473 24.5914V17.9948L31.1973 15.3957V28.1257V28.1316Z" fill="black"/>
</svg>
