<svg width="36" height="28" viewBox="0 0 36 28" fill="none" xmlns="http://www.w3.org/2000/svg">
<path d="M35.1 19.25H34.2V13.3383C34.2 12.6437 33.9131 11.9766 33.4069 11.4844L27.7875 6.02109C27.2812 5.52891 26.595 5.25 25.8806 5.25H23.4V2.625C23.4 1.17578 22.1906 0 20.7 0H6.3C4.80938 0 3.6 1.17578 3.6 2.625V5.25H0.45C0.2025 5.25 0 5.44688 0 5.6875V6.5625C0 6.80312 0.2025 7 0.45 7H15.75C15.9975 7 16.2 7.19688 16.2 7.4375V8.3125C16.2 8.55313 15.9975 8.75 15.75 8.75H2.25C2.0025 8.75 1.8 8.94687 1.8 9.1875V10.0625C1.8 10.3031 2.0025 10.5 2.25 10.5H13.95C14.1975 10.5 14.4 10.6969 14.4 10.9375V11.8125C14.4 12.0531 14.1975 12.25 13.95 12.25H0.45C0.2025 12.25 0 12.4469 0 12.6875V13.5625C0 13.8031 0.2025 14 0.45 14H12.15C12.3975 14 12.6 14.1969 12.6 14.4375V15.3125C12.6 15.5531 12.3975 15.75 12.15 15.75H3.6V22.75C3.6 25.6484 6.01875 28 9 28C11.9812 28 14.4 25.6484 14.4 22.75H21.6C21.6 25.6484 24.0187 28 27 28C29.9813 28 32.4 25.6484 32.4 22.75H35.1C35.595 22.75 36 22.3563 36 21.875V20.125C36 19.6437 35.595 19.25 35.1 19.25ZM9 25.375C7.50938 25.375 6.3 24.1992 6.3 22.75C6.3 21.3008 7.50938 20.125 9 20.125C10.4906 20.125 11.7 21.3008 11.7 22.75C11.7 24.1992 10.4906 25.375 9 25.375ZM27 25.375C25.5094 25.375 24.3 24.1992 24.3 22.75C24.3 21.3008 25.5094 20.125 27 20.125C28.4906 20.125 29.7 21.3008 29.7 22.75C29.7 24.1992 28.4906 25.375 27 25.375ZM31.5 14H23.4V7.875H25.8806L31.5 13.3383V14Z" fill="white"/>
</svg>
