<svg width="17" height="17" viewBox="0 0 17 17" fill="none" xmlns="http://www.w3.org/2000/svg">
<path d="M8.67437 1.97617C8.56245 1.9311 8.43755 1.9311 8.32563 1.97617L2.73062 4.22479L4.98438 5.13008L10.7538 2.81175L8.67437 1.97617ZM12.0156 3.3195L6.24625 5.63783L8.5 6.54311L14.2694 4.22479L12.0156 3.3195ZM15.0625 4.92095L8.96875 7.37021V14.8329L15.0625 12.3837V4.92095ZM8.03125 14.8339V7.36927L1.9375 4.92095V12.3846L8.03125 14.8339ZM7.97781 1.10103C8.31303 0.966322 8.68697 0.966322 9.02219 1.10103L15.7056 3.78769C15.7925 3.82268 15.867 3.88302 15.9195 3.96092C15.9719 4.03882 16 4.13073 16 4.22479V12.3846C15.9999 12.5729 15.9436 12.7567 15.8385 12.9126C15.7334 13.0684 15.5843 13.189 15.4103 13.2588L8.67437 15.9662C8.56245 16.0113 8.43755 16.0113 8.32563 15.9662L1.59062 13.2588C1.41649 13.1891 1.26713 13.0686 1.16185 12.9128C1.05657 12.7569 1.00019 12.573 1 12.3846V4.22479C1.00002 4.13073 1.02807 4.03882 1.08054 3.96092C1.133 3.88302 1.20748 3.82268 1.29438 3.78769L7.97781 1.10103Z" fill="black" stroke="black" stroke-width="0.5"/>
</svg>
