<svg width="33" height="34" viewBox="0 0 33 34" fill="none" xmlns="http://www.w3.org/2000/svg">
<path d="M16.5 0C15.22 0 14.2143 0.935 14.2143 2.125V4.25H10.7857C10.1457 4.25 9.64286 4.7175 9.64286 5.3125V8.5H23.3571V5.3125C23.3571 4.7175 22.8543 4.25 22.2143 4.25H18.7857V2.125C18.7857 0.935 17.78 0 16.5 0ZM1.64286 4.25C1.00286 4.25 0.5 4.7175 0.5 5.3125V32.9375C0.5 33.5325 1.00286 34 1.64286 34H31.3571C31.9971 34 32.5 33.5325 32.5 32.9375V5.3125C32.5 4.7175 31.9971 4.25 31.3571 4.25H27.9286V12.75H5.07143V4.25H1.64286Z" fill="white"/>
</svg>
