<svg width="43" height="28" viewBox="0 0 43 28" fill="none" xmlns="http://www.w3.org/2000/svg">
<path d="M14.2272 25.6365C16.2355 25.6365 17.8635 24.0085 17.8635 22.0001C17.8635 19.9918 16.2355 18.3638 14.2272 18.3638C12.2189 18.3638 10.5908 19.9918 10.5908 22.0001C10.5908 24.0085 12.2189 25.6365 14.2272 25.6365Z" stroke="white" stroke-width="3" stroke-miterlimit="1.5" stroke-linecap="round" stroke-linejoin="round"/>
<path d="M32.4093 25.6365C34.4177 25.6365 36.0457 24.0085 36.0457 22.0001C36.0457 19.9918 34.4177 18.3638 32.4093 18.3638C30.4009 18.3638 28.7729 19.9918 28.7729 22.0001C28.7729 24.0085 30.4009 25.6365 32.4093 25.6365Z" stroke="white" stroke-width="3" stroke-miterlimit="1.5" stroke-linecap="round" stroke-linejoin="round"/>
<path d="M17.9545 22H26.9545V3.09091C26.9545 2.48842 26.4662 2 25.8636 2H1.5" stroke="white" stroke-width="3" stroke-linecap="round"/>
<path d="M9.9549 22H6.22763C5.62514 22 5.13672 21.5116 5.13672 20.9091V12" stroke="white" stroke-width="3" stroke-linecap="round"/>
<path d="M3.31836 7.45459H10.5911" stroke="white" stroke-width="3" stroke-linecap="round" stroke-linejoin="round"/>
<path d="M26.9546 7.45459H37.1548C37.5859 7.45459 37.9766 7.70848 38.1517 8.10245L41.406 15.4248C41.468 15.5644 41.5 15.7153 41.5 15.8679V20.9091C41.5 21.5117 41.0117 22 40.4091 22H36.9546" stroke="white" stroke-width="3" stroke-linecap="round"/>
<path d="M26.9546 22H28.7728" stroke="white" stroke-width="3" stroke-linecap="round"/>
</svg>
