<svg width="41" height="42" viewBox="0 0 41 42" fill="none" xmlns="http://www.w3.org/2000/svg">
<path d="M20.5003 26.6998C23.6484 26.6998 26.2003 24.1479 26.2003 20.9998C26.2003 17.8517 23.6484 15.2998 20.5003 15.2998C17.3522 15.2998 14.8003 17.8517 14.8003 20.9998C14.8003 24.1479 17.3522 26.6998 20.5003 26.6998Z" stroke="white" stroke-width="3" stroke-linecap="round" stroke-linejoin="round"/>
<path d="M34.9826 17.9513L32.8969 12.9151L35.7 9.6L31.9 5.8L28.6029 8.61761L23.4598 6.50251L22.2771 2H18.5639L17.3633 6.56215L12.3384 8.68032L9.1 5.8L5.3 9.6L8.0614 12.9988L6.00775 18.048L1.5 19.1V22.9L6.06211 24.1455L8.17992 29.1694L5.3 32.4L9.1 36.2L12.5032 33.4266L17.4543 35.4634L18.6 40H22.4L23.5485 35.4651L28.5847 33.3794C29.4241 33.9795 31.9 36.2 31.9 36.2L35.7 32.4L32.8802 29.0739L34.9664 24.0362L39.4998 22.8567L39.5 19.1L34.9826 17.9513Z" stroke="white" stroke-width="3" stroke-linecap="round" stroke-linejoin="round"/>
</svg>
